<svg width="608" height="100" viewBox="0 0 608 100" fill="none" xmlns="http://www.w3.org/2000/svg">
  <path d="M136.664 79V20.6901H175.732V31.3525H147.909V43.5976H165.569V54.2599H147.909V79H136.664ZM177.409 79V36.4338H188.238V40.1823C189.738 37.0169 192.376 35.4342 196.152 35.4342C199.317 35.4342 202.205 36.5171 204.815 38.6829L203.316 48.5956C200.983 46.9296 198.401 46.0966 195.569 46.0966C190.682 46.0966 188.238 49.1509 188.238 55.2595V79H177.409ZM228.913 79.9996C222.749 79.9996 217.89 78.0282 214.336 74.0853C210.782 70.1425 209.005 64.6724 209.005 57.6752C209.005 50.8447 210.782 45.4302 214.336 41.4318C217.946 37.4334 222.805 35.4342 228.913 35.4342C234.467 35.4342 238.993 37.1557 242.491 40.5988C245.99 43.9863 247.739 48.9565 247.739 55.5094C247.739 58.2306 247.628 60.3686 247.406 61.9235H219.667C219.889 64.5891 220.861 66.6994 222.583 68.2543C224.36 69.7537 226.47 70.5034 228.913 70.5034C232.69 70.5034 235.744 69.0318 238.076 66.0885L244.74 72.8358C240.797 77.6117 235.522 79.9996 228.913 79.9996ZM219.75 52.7606H237.16C236.827 50.3171 235.911 48.4012 234.411 47.0129C232.967 45.6245 231.135 44.9304 228.913 44.9304C223.471 44.9304 220.417 47.5404 219.75 52.7606ZM275.525 79.9996C269.361 79.9996 264.502 78.0282 260.948 74.0853C257.394 70.1425 255.617 64.6724 255.617 57.6752C255.617 50.8447 257.394 45.4302 260.948 41.4318C264.558 37.4334 269.417 35.4342 275.525 35.4342C281.079 35.4342 285.605 37.1557 289.103 40.5988C292.602 43.9863 294.351 48.9565 294.351 55.5094C294.351 58.2306 294.24 60.3686 294.018 61.9235H266.279C266.501 64.5891 267.473 66.6994 269.195 68.2543C270.972 69.7537 273.082 70.5034 275.525 70.5034C279.302 70.5034 282.356 69.0318 284.688 66.0885L291.352 72.8358C287.41 77.6117 282.134 79.9996 275.525 79.9996ZM266.362 52.7606H283.772C283.439 50.3171 282.523 48.4012 281.023 47.0129C279.579 45.6245 277.747 44.9304 275.525 44.9304C270.083 44.9304 267.029 47.5404 266.362 52.7606Z" fill="#727CF5"/>
  <path d="M327.136 79.9163C322.748 79.9163 318.917 79.0555 315.64 77.334C312.364 75.5569 309.809 73.1968 307.977 70.2535C306.144 67.2547 304.783 64.0616 303.895 60.674C303.062 57.2865 302.645 53.6769 302.645 49.8451C302.645 46.2909 303.09 42.8479 303.978 39.5159C304.867 36.1284 306.227 32.9352 308.06 29.9364C309.892 26.8821 312.447 24.4386 315.723 22.606C319 20.7179 322.804 19.7738 327.136 19.7738C332.356 19.7738 336.743 21.0511 340.297 23.6056C343.907 26.1601 346.461 29.27 347.961 32.9352L337.881 37.5167C336.326 35.1288 334.744 33.3795 333.133 32.2688C331.523 31.1581 329.523 30.6028 327.136 30.6028C324.081 30.6028 321.527 31.6579 319.472 33.7682C317.473 35.8229 316.112 38.2386 315.39 41.0153C314.668 43.7364 314.307 46.6797 314.307 49.8451C314.307 54.8986 315.39 59.369 317.556 63.2563C319.777 67.1437 322.971 69.0873 327.136 69.0873C331.189 69.0873 334.716 66.5883 337.715 61.5903L348.044 65.5054C343.712 75.1127 336.743 79.9163 327.136 79.9163ZM389.008 74.0853C385.509 78.0282 380.733 79.9996 374.68 79.9996C368.627 79.9996 363.851 78.0282 360.353 74.0853C356.854 70.1425 355.105 64.7002 355.105 57.7585C355.105 50.8724 356.854 45.4302 360.353 41.4318C363.907 37.4334 368.683 35.4342 374.68 35.4342C380.678 35.4342 385.426 37.4334 388.924 41.4318C392.479 45.4302 394.256 50.8724 394.256 57.7585C394.256 64.7002 392.506 70.1425 389.008 74.0853ZM374.68 69.5871C377.401 69.5871 379.539 68.5598 381.094 66.505C382.649 64.3948 383.427 61.4793 383.427 57.7585C383.427 54.0378 382.649 51.1223 381.094 49.0121C379.539 46.9018 377.401 45.8467 374.68 45.8467C372.015 45.8467 369.877 46.9296 368.266 49.0954C366.711 51.2056 365.934 54.0934 365.934 57.7585C365.934 61.4237 366.711 64.3115 368.266 66.4217C369.877 68.532 372.015 69.5871 374.68 69.5871ZM431.017 79V55.676C431.017 52.233 430.406 49.734 429.184 48.1791C428.018 46.6241 426.158 45.8467 423.603 45.8467C418.217 45.8467 415.523 49.0676 415.523 55.5094V79H404.694V36.4338H415.523V40.4322C418.244 37.1002 422.048 35.4342 426.935 35.4342C431.156 35.4342 434.682 36.767 437.514 39.4326C440.402 42.0426 441.846 46.2909 441.846 52.1775V79H431.017ZM464.508 79L448.931 36.4338H460.093L469.006 61.6736C469.506 63.173 469.895 64.4781 470.172 65.5887C470.45 64.4781 470.839 63.173 471.339 61.6736L480.168 36.4338H491.331L475.753 79H464.508ZM516.639 79.9996C510.475 79.9996 505.616 78.0282 502.062 74.0853C498.508 70.1425 496.731 64.6724 496.731 57.6752C496.731 50.8447 498.508 45.4302 502.062 41.4318C505.672 37.4334 510.531 35.4342 516.639 35.4342C522.193 35.4342 526.719 37.1557 530.217 40.5988C533.716 43.9863 535.465 48.9565 535.465 55.5094C535.465 58.2306 535.354 60.3686 535.132 61.9235H507.393C507.615 64.5891 508.587 66.6994 510.309 68.2543C512.086 69.7537 514.196 70.5034 516.639 70.5034C520.416 70.5034 523.47 69.0318 525.802 66.0885L532.466 72.8358C528.523 77.6117 523.248 79.9996 516.639 79.9996ZM507.476 52.7606H524.886C524.553 50.3171 523.637 48.4012 522.137 47.0129C520.693 45.6245 518.861 44.9304 516.639 44.9304C511.197 44.9304 508.143 47.5404 507.476 52.7606ZM545.425 79V36.4338H556.254V40.1823C557.754 37.0169 560.392 35.4342 564.168 35.4342C567.333 35.4342 570.221 36.5171 572.831 38.6829L571.332 48.5956C568.999 46.9296 566.417 46.0966 563.585 46.0966C558.698 46.0966 556.254 49.1509 556.254 55.2595V79H545.425ZM593.392 79.9996C586.506 79.9996 583.063 76.2511 583.063 68.7541V45.93H576.982V36.4338H583.063V24.0221L593.892 18.8575V36.4338H603.388V45.93H593.892V67.1714C593.892 69.3928 594.891 70.5034 596.89 70.5034C599.167 70.5034 601.5 69.8926 603.888 68.6708L602.638 78.0837C599.972 79.361 596.89 79.9996 593.392 79.9996Z" fill="#282F3A"/>
  <circle cx="50" cy="50" r="50" fill="#727CF5"/>
  <g clip-path="url(#clip0_2035_970)">
    <path d="M33.6397 46.4056C34.2249 42.8533 35.819 40.3952 38.2736 37.9432C41.4209 34.7924 45.6001 33.2631 50.0386 33.2631C52.9586 33.2631 55.8288 34.1308 58.3376 35.5757L61.3534 37.3704L65.9935 29.345L62.9821 27.6204C59.0622 25.3576 54.5873 23.76 50.0395 23.76C36.7248 23.76 25.7128 35.7488 24.2626 46.4056H18L28.9383 64.2086L39.6927 46.4056H33.6397Z" fill="white"/>
    <path d="M71.0612 35.7106L60.3068 53.5101H66.3545C64.8208 61.5026 58.0387 66.8301 50.039 66.8301C47.1306 66.8301 44.2692 66.0344 41.764 64.5966L38.7491 62.8489L34.124 70.8974L37.1399 72.6265C41.0482 74.8706 45.5072 76.0553 50.0381 76.0553C56.9605 76.0553 63.4709 73.4195 68.373 68.5112C72.4697 64.4101 75.0406 59.7265 75.7653 53.5101H82.0003L71.0612 35.7106Z" fill="white"/>
  </g>
  <defs>
    <clipPath id="clip0_2035_970">
      <rect width="64" height="64" fill="white" transform="translate(18 18)"/>
    </clipPath>
  </defs>
</svg>
